<svg clip-rule="evenodd" fill-rule="evenodd" fill="#DA2B42" stroke-linejoin="round" stroke-miterlimit="2" viewBox="0 0 76 60" xmlns="http://www.w3.org/2000/svg"><path d="m726.628 601.941c-15.343 2.937-29.603 7.003-42.778 12.198-13.176 5.196-24.683 11.238-34.523 18.128s-17.595 14.288-23.266 22.194c-5.67 7.906-8.505 16.038-8.505 24.396 0 4.97 1.501 9.318 4.503 13.045s6.504 5.591 10.507 5.591c4.336 0 7.921-.565 10.757-1.694 2.835-1.13 5.754-2.372 8.756-3.727 3.002-1.356 6.42-2.598 10.256-3.728 3.836-1.129 8.923-1.694 15.261-1.694 6.671 0 12.925.96 18.762 2.88s11.007 4.575 15.51 7.963 8.089 7.454 10.757 12.198c2.669 4.744 4.003 9.826 4.003 15.248 0 5.873-1.834 11.294-5.504 16.264-3.669 4.969-8.589 9.261-14.759 12.876-6.171 3.614-13.343 6.494-21.515 8.64s-16.928 3.219-26.267 3.219c-12.342 0-23.849-1.864-34.523-5.591s-20.013-8.81-28.019-15.248c-8.005-6.437-14.343-13.892-19.012-22.363-4.67-8.471-7.005-17.563-7.005-27.276 0-15.361 4.253-29.479 12.758-42.355 8.506-12.875 19.847-24.113 34.023-33.714 14.176-9.6 30.771-17.281 49.783-23.041 19.013-5.76 39.026-9.092 60.04-9.995zm180.62 0c-15.01 2.937-29.186 7.003-42.528 12.198-13.342 5.196-24.85 11.238-34.523 18.128s-17.345 14.288-23.015 22.194c-5.671 7.906-8.506 16.038-8.506 24.396 0 4.97 1.418 9.318 4.253 13.045s6.421 5.591 10.757 5.591 7.922-.565 10.757-1.694c2.835-1.13 5.671-2.372 8.506-3.727 2.835-1.356 6.171-2.598 10.006-3.728 3.836-1.129 8.923-1.694 15.261-1.694 6.671 0 12.925.96 18.762 2.88s11.007 4.575 15.51 7.963 8.089 7.454 10.758 12.198c2.668 4.744 4.002 9.826 4.002 15.248 0 5.873-1.751 11.294-5.253 16.264-3.503 4.969-8.339 9.261-14.51 12.876-6.171 3.614-13.425 6.494-21.764 8.64s-17.178 3.219-26.518 3.219c-12.342 0-23.849-1.864-34.523-5.591s-20.013-8.81-28.019-15.248c-8.005-6.437-14.342-13.892-19.012-22.363s-7.005-17.563-7.005-27.276c0-15.361 4.253-29.479 12.759-42.355 8.505-12.875 19.93-24.113 34.272-33.714 14.343-9.6 30.938-17.281 49.783-23.041 18.846-5.76 38.776-9.092 59.79-9.995z" fill-rule="nonzero" transform="matrix(.223647 0 0 .330241 -127.483991 -193.638429)"/></svg>
