<svg clip-rule="evenodd" fill-rule="evenodd" fill="#DA2B42" stroke-linejoin="round" stroke-miterlimit="2" viewBox="0 0 76 60" xmlns="http://www.w3.org/2000/svg"><path d="m570.024 750.351c15.01-2.936 29.186-7.002 42.528-12.198 13.342-5.195 25.017-11.238 35.024-18.127 10.006-6.89 17.845-14.288 23.515-22.194 5.671-7.906 8.506-16.038 8.506-24.396 0-4.97-1.501-9.318-4.503-13.046-3.002-3.727-6.838-5.59-11.508-5.59-4.002 0-7.338.564-10.006 1.694-2.669 1.129-5.504 2.372-8.506 3.727s-6.421 2.598-10.257 3.727c-3.836 1.13-8.923 1.694-15.26 1.694-6.671 0-13.009-.96-19.013-2.88s-11.257-4.631-15.76-8.132-8.089-7.567-10.757-12.198c-2.669-4.631-4.003-9.657-4.003-15.078 0-5.873 1.751-11.351 5.253-16.434 3.503-5.082 8.423-9.431 14.76-13.045 6.338-3.614 13.593-6.438 21.765-8.471s17.094-3.049 26.768-3.049c12.341 0 23.849 1.863 34.523 5.59 10.673 3.728 20.013 8.81 28.018 15.248s14.26 13.892 18.763 22.363 6.754 17.563 6.754 27.277c0 15.36-4.253 29.478-12.758 42.354-8.506 12.876-19.847 24.114-34.023 33.714-14.176 9.601-30.77 17.281-49.783 23.041s-39.026 9.092-60.04 9.996zm180.62 0c15.344-2.936 29.687-7.002 43.029-12.198 13.342-5.195 24.933-11.238 34.773-18.127 9.84-6.89 17.595-14.288 23.265-22.194 5.671-7.906 8.506-16.038 8.506-24.396 0-4.97-1.418-9.318-4.253-13.046-2.835-3.727-6.588-5.59-11.257-5.59-4.003 0-7.339.564-10.007 1.694-2.668 1.129-5.504 2.372-8.506 3.727s-6.421 2.598-10.256 3.727c-3.836 1.13-8.923 1.694-15.261 1.694-7.004 0-13.509-.96-19.513-2.88s-11.257-4.631-15.76-8.132-8.089-7.567-10.757-12.198c-2.669-4.631-4.003-9.657-4.003-15.078 0-5.873 1.835-11.351 5.504-16.434 3.669-5.082 8.589-9.431 14.76-13.045 6.17-3.614 13.425-6.438 21.764-8.471s17.345-3.049 27.018-3.049c12.342 0 23.849 1.863 34.523 5.59 10.674 3.728 19.93 8.81 27.768 15.248 7.839 6.438 14.01 13.892 18.513 22.363s6.754 17.563 6.754 27.277c0 15.36-4.169 29.478-12.508 42.354s-19.68 24.114-34.023 33.714c-14.343 9.601-31.02 17.281-50.033 23.041s-39.026 9.092-60.04 9.996z" fill-rule="nonzero" transform="matrix(.223647 0 0 .330241 -127.483991 -193.638429)"/></svg>
