<svg fill="none" height="103" viewBox="0 0 93 103" width="93" xmlns="http://www.w3.org/2000/svg" xmlns:xlink="http://www.w3.org/1999/xlink"><clipPath id="a"><path d="m0 0h92.4021v102.36h-92.4021z"/></clipPath><g clip-path="url(#a)" fill="#221e1f"><path d="m45.6606 96.014h-40.30704c-2.95186 0-5.35349896-2.4147-5.35349896-5.3827v-74.5149c0-2.9665 2.40163896-5.3801 5.35349896-5.3801h5.28774c.8257 0 1.4951.6695 1.4951 1.4952s-.6694 1.4952-1.4951 1.4952h-5.28774c-1.30305 0-2.36314 1.072-2.36314 2.3897v74.5149c0 1.3195 1.06009 2.3923 2.36314 2.3923h40.30704c.8254 0 1.4952.6691 1.4952 1.4952s-.6698 1.4952-1.4952 1.4952z"/><path d="m68.5929 53.4667c-.8257 0-1.4952-.6694-1.4952-1.4952v-35.8551c0-1.3177-1.0724-2.3897-2.39-2.3897h-5.2877c-.8257 0-1.4952-.6695-1.4952-1.4952s.6695-1.4952 1.4952-1.4952h5.2877c2.9668 0 5.3804 2.4136 5.3804 5.3801v35.8551c0 .8258-.6695 1.4952-1.4952 1.4952z"/><path d="m16.8563 14.2866h36.3527v-2.9478c0-.8463-.6814-1.53516-1.5195-1.53516h-7.1585c-.8257 0-1.4952-.66946-1.4952-1.49518v-4.05044c0-.699-.5685-1.2679-1.2679-1.2679h-13.4705c-.699 0-1.2679.5689-1.2679 1.2679v4.05044c0 .82572-.6695 1.49518-1.4952 1.49518h-7.1585c-.8377 0-1.5195.68886-1.5195 1.53516zm37.8479 2.9903h-39.3431c-.8257 0-1.4952-.6694-1.4952-1.4951v-4.443c0-2.49506 2.023-4.52552 4.5099-4.52552h5.6633v-2.55526c0-2.34781 1.9105-4.25826414 4.2583-4.25826414h13.4705c2.3482 0 4.2583 1.91045414 4.2583 4.25826414v2.55526h5.6633c2.4869 0 4.5099 2.03046 4.5099 4.52552v4.443c0 .8257-.6695 1.4951-1.4952 1.4951z"/><path d="m15.8247 36.2557c-.3559 0-.7125-.1263-.9973-.3816l-4.2684-3.8269c-.61487-.5514-.66645-1.4967-.1155-2.1112.551-.6149 1.4963-.6665 2.1116-.1155l3.1929 2.8629 6.3587-6.6128c.5723-.5951 1.5187-.6138 2.1142-.0412.595.5723.6137 1.5188.0411 2.1138l-7.3589 7.6535c-.2931.3047-.6852.459-1.0784.459z"/><path d="m57.699 29.1173h-26.5667c-.8257 0-1.4952-.6695-1.4952-1.4952s.6695-1.4951 1.4952-1.4951h26.5667c.8257 0 1.4952.6694 1.4952 1.4951s-.6695 1.4952-1.4952 1.4952z"/><path d="m49.9473 36.2557h-18.815c-.8257 0-1.4952-.6694-1.4952-1.4951 0-.8258.6695-1.4952 1.4952-1.4952h18.815c.8257 0 1.4951.6694 1.4951 1.4952 0 .8257-.6694 1.4951-1.4951 1.4951z"/><path d="m15.8247 58.6965c-.3559 0-.7125-.1267-.9977-.382l-4.2684-3.8269c-.61449-.5514-.66607-1.4963-.1147-2.1112.5506-.6149 1.4959-.6669 2.1112-.1152l3.1929 2.8629 6.3587-6.6128c.5722-.5954 1.5187-.6141 2.1141-.0415.5951.5723.6138 1.5188.0412 2.1142l-7.3589 7.6535c-.2931.3046-.6852.459-1.0784.459z"/><path d="m57.699 51.558h-26.5667c-.8257 0-1.4952-.6695-1.4952-1.4952s.6695-1.4952 1.4952-1.4952h26.5667c.8257 0 1.4952.6695 1.4952 1.4952s-.6695 1.4952-1.4952 1.4952z"/><path d="m49.9473 58.6964h-18.815c-.8257 0-1.4952-.6695-1.4952-1.4952s.6695-1.4951 1.4952-1.4951h18.815c.8257 0 1.4951.6694 1.4951 1.4951s-.6694 1.4952-1.4951 1.4952z"/><path d="m15.8247 81.1369c-.3559 0-.7125-.1264-.9973-.382l-4.2684-3.8266c-.61487-.5513-.66645-1.4966-.1155-2.1112.551-.6152 1.4963-.6672 2.1116-.1155l3.1929 2.8629 6.3587-6.6128c.5723-.5951 1.5187-.6138 2.1142-.0415.595.5727.6137 1.5191.0411 2.1142l-7.3589 7.6535c-.2931.3046-.6852.459-1.0784.459z"/><path d="m56.7489 73.9982h-25.6035c-.8257 0-1.4952-.6695-1.4952-1.4952s.6695-1.4952 1.4952-1.4952h25.6035c.8257 0 1.4951.6695 1.4951 1.4952s-.6694 1.4952-1.4951 1.4952z"/><path d="m49.9473 81.1368h-18.815c-.8257 0-1.4952-.6694-1.4952-1.4951s.6695-1.4952 1.4952-1.4952h18.815c.8257 0 1.4951.6695 1.4951 1.4952s-.6694 1.4951-1.4951 1.4951z"/><path d="m70.7573 58.6964c-4.5248 0-8.206 3.6811-8.206 8.2056 0 4.5247 3.6812 8.2059 8.206 8.2059 4.5244 0 8.2055-3.6812 8.2055-8.2059 0-4.5245-3.6811-8.2056-8.2055-8.2056zm0 19.4018c-6.1736 0-11.1963-5.0226-11.1963-11.1962s5.0227-11.1959 11.1963-11.1959 11.1959 5.0223 11.1959 11.1959-5.0223 11.1962-11.1959 11.1962z"/><path d="m52.1628 99.3109h37.1889c-.625-8.8215-8-15.8059-16.9752-15.8059h-3.2385c-8.9756 0-16.3506 6.9844-16.9752 15.8059zm38.446 2.9901h-39.7031c-.9793 0-1.7762-.8-1.7762-1.779 0-11.0307 8.9759-20.0074 20.0085-20.0074h3.2385c11.0326 0 20.0085 8.9767 20.0085 20.0074 0 .979-.7969 1.779-1.7762 1.779z"/></g></svg>