<?xml version="1.0" encoding="UTF-8" standalone="no"?>
<!DOCTYPE svg PUBLIC "-//W3C//DTD SVG 1.1//EN" "http://www.w3.org/Graphics/SVG/1.1/DTD/svg11.dtd">
<svg width="100%" height="100%" viewBox="0 0 254 166" version="1.1" xmlns="http://www.w3.org/2000/svg" xmlns:xlink="http://www.w3.org/1999/xlink" xml:space="preserve" xmlns:serif="http://www.serif.com/" style="fill-rule:evenodd;clip-rule:evenodd;stroke-linejoin:round;stroke-miterlimit:2;">
    <g transform="matrix(1,0,0,1,-265.424479,-613.4375)">
        <g transform="matrix(1.283784,0,0,2.12605,-69.527027,-686.890756)">
            <path d="M260.91,688.687L260.91,612.156L313.38,612.156C318.867,612.156 323.888,612.846 328.442,614.226C332.996,615.606 336.954,617.448 340.318,619.752C343.682,622.056 346.298,624.636 348.167,627.494C350.036,630.352 350.97,633.268 350.97,636.243C350.97,640.347 349.449,644.254 346.408,647.963C343.367,651.672 339.12,654.679 333.667,656.983C328.214,659.287 321.827,660.439 314.504,660.439L273.296,660.439L273.296,688.687L260.91,688.687ZM273.296,653.719L313.874,653.719C318.872,653.719 323.209,652.905 326.884,651.278C330.559,649.65 333.407,647.499 335.427,644.823C337.448,642.147 338.458,639.287 338.458,636.243C338.458,633.034 337.282,630.11 334.929,627.47C332.577,624.831 329.465,622.738 325.594,621.193C321.723,619.648 317.441,618.876 312.75,618.876L273.296,618.876L273.296,653.719Z" style="fill-rule:nonzero;"/>
            <path d="M445.98,626.472C444.236,625.275 442.148,624.183 439.716,623.196C437.284,622.209 434.606,621.354 431.683,620.632C428.76,619.909 425.596,619.341 422.19,618.926C418.784,618.512 415.177,618.305 411.369,618.305C400.246,618.305 392.092,619.583 386.908,622.138C381.724,624.694 379.132,628.155 379.132,632.521C379.132,635.527 380.374,637.9 382.859,639.64C385.345,641.379 389.196,642.789 394.415,643.869C399.634,644.948 406.314,646.038 414.457,647.137C423.438,648.287 431.212,649.662 437.779,651.262C444.345,652.862 449.398,655.013 452.937,657.716C456.475,660.42 458.244,664.06 458.244,668.638C458.244,672.134 457.128,675.187 454.895,677.797C452.661,680.407 449.506,682.571 445.428,684.289C441.35,686.007 436.524,687.284 430.948,688.122C425.372,688.959 419.259,689.377 412.608,689.377C406.077,689.377 399.8,688.959 393.776,688.122C387.753,687.284 382.074,686.049 376.74,684.415C371.406,682.782 366.393,680.737 361.702,678.282L367.908,672.089C370.197,673.543 372.92,674.9 376.077,676.159C379.235,677.419 382.747,678.541 386.615,679.526C390.483,680.511 394.643,681.282 399.095,681.84C403.548,682.398 408.154,682.677 412.914,682.677C423.009,682.677 430.897,681.557 436.578,679.316C442.259,677.076 445.099,673.776 445.099,669.417C445.099,666.268 443.675,663.741 440.826,661.837C437.977,659.933 433.702,658.358 428,657.113C422.298,655.869 415.24,654.672 406.826,653.522C398.047,652.291 390.637,650.935 384.596,649.454C378.554,647.972 374.006,645.99 370.95,643.507C367.893,641.024 366.365,637.738 366.365,633.65C366.365,628.89 368.285,624.869 372.125,621.587C375.965,618.305 381.301,615.823 388.132,614.141C394.964,612.458 402.759,611.617 411.517,611.617C417.123,611.617 422.326,611.96 427.125,612.647C431.925,613.333 436.387,614.329 440.514,615.633C444.64,616.937 448.453,618.551 451.955,620.474L445.98,626.472Z" style="fill-rule:nonzero;"/>
        </g>
    </g>
</svg>
