<svg fill="none" height="103" viewBox="0 0 126 103" width="126" xmlns="http://www.w3.org/2000/svg"><g stroke="#010101" stroke-linecap="round" stroke-linejoin="round" stroke-miterlimit="2" stroke-width="2.36048"><path d="m48.3854 44.5599.548.0521c3.0472.2903 5.9865 1.2867 8.5854 2.9096"/><path d="m35.0589 75.6572c-.3902-.6426-.6171-.8687-.9354-1.4375-.4262-.7608-.8138-1.494-1.157-2.1981-1.1735-2.4043-1.7851-5.043-1.8571-7.7174"/><path d="m84.1605 69.8385 2.5268 2.3249 1.251 1.0533 4.4062 3.9338.0636.104c.9798 1.5876.7806 3.6572-.487 5.0328l-.0721.0808c-.7971.866-1.9207 1.3592-3.0915 1.3592-1.0461 0-2.048-.3872-2.8202-1.091l-4.3564-3.6503-.2131.2302 2.2751 2.093c1.6993 1.5626 1.8128 4.2188.249 5.9206l-.094.0999c-.7777.8458-1.9042 1.3396-3.0722 1.3396-1.0545 0-2.0591-.393-2.834-1.1065l-2.2751-2.0927-.2021.2192.9494.8718c.8165.7512 1.3616 1.7747 1.4391 2.8823.0775 1.1594-.3127 2.2742-1.096 3.1261l-.0829.0886c-.7888.8563-1.9126 1.35-3.0833 1.35-1.0517 0-2.0592-.3927-2.8342-1.1059l-1.0405-.9596-.299.3241c1.0075 1.5829.8331 3.6849-.4511 5.0812l-.0747.0814c-.7971.8652-1.9208 1.3581-3.0888 1.3581-.5895 0-1.1597-.1201-1.6938-.3568-.0941-.0409-.1855-.0855-.2768-.1339l-.4926-.3216c-.1273-.0833-.2463-.1769-.3597-.2796l-.0776-.0705"/><g clip-rule="evenodd" fill-rule="evenodd"><path d="m44.472 78.5562-.3322.3542c-.7528.7894-1.5666 1.6473-2.3111 2.4342-.1771.1846-.3403.3567-.4981.5236-.357.372-.7584.6756-1.2068.9059-.62.3213-1.3091.491-1.9955.491-1.0296 0-1.9927-.3795-2.7178-1.0678l-.3542-.3316c-1.6246-1.546-1.6219-4.2054.0138-5.9286l3.2077-3.3882c.8801-.9261 2.0897-1.4575 3.3296-1.4575 1.0655 0 2.0646.3897 2.8174 1.0982l.0665.0631c1.7298 1.6449 1.7215 4.474-.0193 6.3035z"/><path d="m53.0351 80.2388c0 1.1082-.418 2.1607-1.1791 2.9631l-4.5833 4.8304c-.3791.3997-.8247.711-1.334.9183l-.2297.0964h-.0249c-.4068.1392-.8303.2073-1.2676.2073-1.0074 0-1.9706-.382-2.7013-1.0753l-.5618-.5314c-1.0794-1.0249-1.4835-2.6063-1.0296-4.0308.1688-.5541.4678-1.0628.883-1.5007l4.5971-4.8456c.8081-.8503 1.9457-1.3385 3.1247-1.3385 1.1126 0 2.1643.4177 2.9669 1.179.8524.8124 1.3396 1.951 1.3396 3.1278z"/><path d="m58.3353 87.0835c0 1.1084-.418 2.161-1.1792 2.963l-3.7308 3.9324c-.2934.3086-.6281.564-.9962.7614-.5757.3088-1.2289.4732-1.8849.4732-1.024 0-1.9928-.3872-2.729-1.0879l-.4954-.4681c-1.1957-1.1364-1.5637-2.9177-.9188-4.4332.0442-.1038.0941-.2101.1494-.3139.1633-.3139.3737-.6022.6201-.863l3.7308-3.932c.8082-.8527 1.9511-1.3412 3.1301-1.3412 1.1071 0 2.1589.4201 2.9615 1.1793.8524.8123 1.3424 1.9534 1.3424 3.13z"/><path d="m63.8872 93.6599c0 1.1082-.4207 2.1607-1.1791 2.9631l-3.1329 3.3021c-.2159.2249-.4567.4219-.7197.5899-.5978.379-1.298.582-2.0203.582-.9715 0-1.8904-.367-2.5934-1.033l-.7777-.7387c-1.204-1.1386-1.5195-2.968-.7667-4.446.1606-.3188.3709-.6147.6228-.8829l.7278-.7644 2.4024-2.5405c.811-.8527 1.9513-1.3409 3.1303-1.3409 1.1098 0 2.1616.4201 2.9642 1.179.8524.8123 1.3423 1.951 1.3423 3.1303z"/></g><path d="m96.7369 62.6761-5.4191 13.3638-4.6636-3.9349-1.2621-1.065-2.4881-2.2841-14.7629-13.1886-7.1212 1.4096v2.3373c0 1.7234-.6697 3.3406-1.8847 4.5598-1.2233 1.2164-2.8397 1.8861-4.5585 1.8861-1.9899 0-3.609-1.6199-3.609-3.6096l.011-8.6432c0-.9922.5038-1.9058 1.3424-2.4411l5.5935-3.5872 2.1698-1.393 2.7788-1.7793c1.0711-.6867 2.311-1.0484 3.5842-1.0484.1688 0 .3348.0058.5037.0169l4.9237.3811 6.2383.6922"/><path d="m96.759 62.5766 27.89-27.8889"/><path d="m78.3733 44.1894 27.8897-27.8889"/><path d="m1.24618 34.5642 29.86332 29.7399"/><path d="m19.6319 16.1772 28.5071 28.3827"/><path clip-rule="evenodd" d="m62.7636 5.98403c-6.8805-13.35464-31.2942 3.82882 0 22.87967 31.2914-19.05085 6.8777-36.23431 0-22.87967z" fill="#da2b42" fill-rule="evenodd"/></g></svg>