<svg fill="none" height="103" viewBox="0 0 123 103" width="123" xmlns="http://www.w3.org/2000/svg"><g stroke="#010101" stroke-linecap="round" stroke-linejoin="round" stroke-miterlimit="2" stroke-width="2.54026"><g clip-rule="evenodd" fill-rule="evenodd"><path d="m108.911 43.2106h-68.2819c-1.8346 0-3.322-1.4875-3.322-3.3221v-35.5664c0-1.83463 1.4874-3.3221 3.322-3.3221h68.2819c1.835 0 3.322 1.48747 3.322 3.3221v35.5664c0 1.8346-1.487 3.3221-3.322 3.3221z" fill="#ef8c98"/><path d="m43.9428 32.0392v-19.8677c2.8028 0 5.0749-2.27207 5.0749-5.07482h51.5053c0 2.80275 2.272 5.07482 5.075 5.07482v19.8677c-2.803 0-5.075 2.2721-5.075 5.0748h-51.5053c0-2.8027-2.2721-5.0748-5.0749-5.0748z"/><path d="m83.441 21.8893c0 4.7814-3.8781 8.6595-8.6595 8.6595-4.7813 0-8.6593-3.8781-8.6593-8.6595 0-4.7813 3.878-8.6594 8.6593-8.6594 4.7814 0 8.6595 3.8781 8.6595 8.6594z"/><path d="m46.3815 90.5469-10.2598 10.2601-34.85235-34.8554 10.25985-10.2598 12.6053 12.6081 2.8394 2.8366.6605.6633 14.2593 14.2565 3.3475 3.3475z"/></g><path d="m44.0726 87.9474h38.3353c6.9829 0 9.3341-.9738 11.0699-2.7068l25.9532-25.9502c.99-.9907 1.448-2.241 1.448-3.4716 0-2.1028-1.271-4.4737-3.641-4.7814-3.98-.5137-7.522 1.2758-12.549 4.5358l-17.5534 13.0569"/><path d="m53.1724 74.9215h26.6699c3.9656 0 7.0055-2.4697 7.2736-5.3825.0677-.7254-.0367-1.4818-.3444-2.2326-1.5693-3.8273-5.0071-6.4184-11.1037-6.4184h-19.9749c-4.7672-5.6563-12.8649-10.353-22.0522-10.353-7.4288 0-14.7759 3.4068-19.5939 7.491"/></g></svg>