<svg fill="none" height="103" viewBox="0 0 60 103" width="60" xmlns="http://www.w3.org/2000/svg"><path d="m9.81906 101.326-8.78848-41.3575h57.38362l-7.7545 41.3575z" fill="#fcac39"/><g stroke="#231f20" stroke-linecap="round" stroke-linejoin="round" stroke-miterlimit="10" stroke-width="2.52811"><path d="m50.5202 101.026h-41.00897l-8.10528-40.7096h57.21935z"/><path d="m57.309 66.1356h-54.5869"/><path d="m42.9275 45.982c-4.893 4.893-12.9118 4.8073-12.9118 4.8073s-.0857-8.0188 4.8073-12.9118 12.9118-4.8073 12.9118-4.8073.0857 8.0188-4.8073 12.9118z"/><path d="m17.1037 45.982c4.893 4.893 12.9118 4.8073 12.9118 4.8073s.0857-8.0188-4.8073-12.9118-12.9118-4.8073-12.9118-4.8073-.0857 8.0188 4.8073 12.9118z"/><path d="m44.6895 15.9808c0 8.1042-6.5698 14.674-14.674 14.674s-14.6739-6.5698-14.6739-14.674c0-8.10415 6.5697-14.67392 14.6739-14.67392s14.674 6.56977 14.674 14.67392z"/><path d="m30.0153 30.6549v29.6616"/></g><path d="m33.7383 17.8463c-.0765-.2297-.2128-.4422-.4082-.6379-.1958-.1954-.4553-.3739-.7782-.5358-.3233-.1615-.7315-.3189-1.2247-.472v4.618c.8165-.0677 1.4416-.2974 1.8753-.6888.4337-.3911.6506-.893.6506-1.5054 0-.289-.0383-.5485-.1148-.7781zm-4.4267-9.70816c-.8164.06817-1.4288.30219-1.837.70164-.4083.39986-.6124.88026-.6124 1.44152 0 .5446.1615.9995.4848 1.365.3229.366.9779.6933 1.9646.9823zm7.1567 12.22126c-.2639.5784-.6338 1.0804-1.1098 1.5053-.4765.4254-1.0462.7698-1.7095 1.0333-.6634.264-1.4032.4298-2.2197.4976v2.5259h-2.2197v-2.5515c-1.1227-.1359-2.1903-.4165-3.2021-.8419-1.0122-.425-1.9518-.9863-2.8193-1.684l1.6329-2.3217c.7312.5955 1.4544 1.0759 2.1687 1.4415.7144.366 1.4882.6167 2.3218.7527v-5.0008c-.9357-.238-1.7437-.5103-2.4238-.8164-.6805-.3062-1.2462-.6674-1.6967-1.0844-.4509-.4166-.787-.9013-1.0078-1.4543-.2213-.5525-.3317-1.1864-.3317-1.9008 0-.68007.1276-1.30958.3827-1.88801.2552-.57805.6207-1.07998 1.0971-1.50532.476-.42497 1.0417-.76544 1.6967-1.02059.6546-.25514 1.3817-.4166 2.1815-.48476v-1.4798h2.2197v1.53081c.9352.11922 1.79.34047 2.5642.66338.7737.32331 1.518.74869 2.2324 1.27569l-1.4287 2.39836c-1.106-.83321-2.2624-1.37777-3.47-1.63292v4.84766c1.9391.4936 3.3463 1.1525 4.2226 1.9774.8759.8252 1.314 1.9263 1.314 3.304 0 .6977-.132 1.3355-.3955 1.9136z" fill="#000"/></svg>