<svg fill="none" height="103" viewBox="0 0 90 103" width="90" xmlns="http://www.w3.org/2000/svg" xmlns:xlink="http://www.w3.org/1999/xlink"><clipPath id="a"><path d="m0 0h89.2053v102.36h-89.2053z"/></clipPath><g clip-path="url(#a)"><path d="m13.3932 41.0011-3.94238-.952c-2.40484-.583-4.72335 1.239-4.72335 3.7158v15.0999c-.04933-.0012-.0986-.0078-.14793-.0078-4.57948394 0-4.57954 4.0586-4.57954 7.3198 0 3.2673.00005606 7.3333 4.57954 7.3333.04933 0 .0986-.0066.14793-.0074v15.9895c0 1.7714 1.20452 3.2998 2.92285 3.7162l36.50418 8.8306c.0822.02.1645.03.2508.03.0823 0 .1645-.01.2467-.03l36.5042-8.8306c.8345-.2002 1.5786-.6758 2.109-1.3504.5302-.6742.818-1.5078.8139-2.3658v-15.9899c.0493.0012.0986.0074.152.0074 4.5795 0 4.5796-4.0656 4.5796-7.3333 0-3.2608-.0001-7.3194-4.5796-7.3194-.0534 0-.1027.0062-.152.0074v-15.0995c0-2.4863-2.3267-4.2975-4.7234-3.7162l-3.9382.9528c-.0452-6.3652-5.2372-11.5313-11.6172-11.5313h-11.5186c4.7233-2.7333 7.9175-7.832 7.9175-13.6735 0-8.71002-7.083-15.7967-15.798-15.7967-8.7067 0-15.7938 7.08668-15.7938 15.7967 0 5.8415 3.1941 10.9402 7.9216 13.6735h-11.5227c-6.38 0-11.572 5.1661-11.6131 11.5309zm17.3395-25.2044c0-7.53801 6.1334-13.67017 13.6726-13.67017 7.5352 0 13.6686 6.13216 13.6686 13.67017 0 7.5381-6.1334 13.6706-13.6686 13.6706-7.5392 0-13.6726-6.1325-13.6726-13.6706zm-28.60743 50.3801c0-4.0862.30429-5.1933 2.45427-5.1933 2.84881 0 5.18783 2.3736 5.18783 5.1908 0 2.7719-2.27325 5.2093-5.18783 5.2093-2.14998 0-2.45427-1.1091-2.45427-5.2068zm4.72747 23.315v-16.341c2.98448-.9808 5.04406-3.8177 5.04406-6.974 0-3.1247-2.05136-5.9838-5.04406-6.9572v-15.4547c0-1.1104 1.0442-1.9079 2.09657-1.6489l34.39129 8.3105v49.2282l-35.18877-8.514c-.36997-.0884-.69885-.2993-.93317-.5986-.23842-.2992-.36592-.6692-.36592-1.0503zm79.82856-23.315c0 4.0977-.3043 5.2068-2.4502 5.2068-2.9269 0-5.1919-2.4686-5.1919-5.2093 0-2.7152 2.2445-5.1908 5.1919-5.1908 2.1459 0 2.4502 1.1071 2.4502 5.1933zm-6.8241-24.0608c1.0524-.2594 2.0966.5389 2.0966 1.6489v15.4547c-3.0009.987-5.044 3.8296-5.044 6.9572 0 3.1674 2.0801 6.0022 5.044 6.974v16.341c0 .3811-.1275.7511-.3618 1.0503-.2343.2993-.5673.5102-.9373.5986l-35.1887 8.514v-49.2282zm-6.565-1.0372v.4304l-28.8869 6.9864-28.891-6.9864v-.4304c0-5.2285 4.2589-9.4825 9.492-9.4825h38.794c5.2331 0 9.4919 4.254 9.4919 9.4825z" fill="#000"/></g></svg>