<svg fill="none" height="103" viewBox="0 0 97 103" width="97" xmlns="http://www.w3.org/2000/svg" xmlns:xlink="http://www.w3.org/1999/xlink"><clipPath id="a"><path d="m0 0h96.0788v102.36h-96.0788z"/></clipPath><g clip-path="url(#a)" fill="#030405"><path d="m22.2077 89.0605c.5065-.7357 1.517-.9194 2.2537-.4137.7342.5058.9184 1.4945.4362 2.2527l-5.7238 8.3451c-.3902.5746-.8724 1.1034-1.3789 1.5404-.5525.46-1.1268.827-1.7254 1.08-.6203.276-1.2625.437-1.9071.437-.6907.023-1.3328-.115-1.9314-.46l-.0921-.068c-1.2649-.713-2.52745-1.472-3.81665-2.1845-.57432-.3449-1.03479-.8276-1.3789-1.4484-.29807-.5516-.48218-1.1955-.55246-1.8849-.08966-.6206-.04609-1.3105.07023-2.0232.11389-.6434.34414-1.3103.64463-1.9539l5.01135-10.4371c.3902-.8043 1.3546-1.1261 2.1591-.7583.8046.3904 1.1487 1.3563.7586 2.1609l-5.0114 10.4369c-.18416.3678-.29806.7585-.36591 1.1496-.07027.3674-.09213.7352-.04609 1.08.02181.276.09209.5058.18175.69.04604.0918.11636.1606.1624.1836l3.81665 2.2069.0921.0461c.046.0228.1381.0463.2278.0463.2084 0 .4386-.0693.6906-.1842.3223-.1379.6204-.3218.9209-.5746.2981-.253.5501-.552.8046-.8966z"/><path d="m63.0136 90.8995c-.5065-.7582-.3223-1.7469.4362-2.2527.7367-.5057 1.7229-.322 2.2294.4137l5.7262 8.3681c.2278.3446.5041.6436.7804.8966.298.2528.6203.4367.9208.5746.2738.1149.5041.1842.6882.1842.1163 0 .1842-.0235.2521-.0463l.092-.0461 3.8167-2.2069c.046-.023.0921-.0918.16-.1836.0945-.1842.1623-.414.1866-.69.0436-.3448.0217-.7126-.0461-1.08-.0703-.3911-.1866-.7818-.3684-1.1496l-5.0137-10.4369c-.3902-.8046-.0436-1.7705.7609-2.1609.8045-.3678 1.769-.046 2.1373.7583l5.0114 10.4371c.3223.6436.5283 1.3105.6422 1.9539.1381.7127.1623 1.4026.092 2.0232-.0678.6894-.2738 1.3333-.5742 1.8849-.3223.6208-.7803 1.1035-1.3789 1.4484-1.2625.7125-2.5517 1.4715-3.8143 2.1845l-.0702.068c-.5986.345-1.265.483-1.9314.46-.6422 0-1.2868-.161-1.9314-.437-.5743-.253-1.1729-.62-1.723-1.08-.5064-.437-.9668-.9658-1.3788-1.5404z"/><path d="m72.416 32.6923c-.5064-.7357-.3223-1.7472.4362-2.253.7367-.5059 1.723-.3218 2.2294.437 2.1156 3.0574 3.7707 6.4828 4.8975 10.1148 1.1026 3.5402 1.6794 7.2873 1.6794 11.1496 0 10.4139-4.2069 19.8393-11.0358 26.6669-6.8288 6.8049-16.253 11.0348-26.6659 11.0348-10.4154 0-19.8395-4.2299-26.6684-11.0348-6.8264-6.8276-11.0575-16.253-11.0575-26.6669s4.2311-19.8393 11.0575-26.6669c6.8289-6.8279 16.253-11.0578 26.6684-11.0578 3.8603 0 7.6092.5981 11.1254 1.6781 3.6543 1.1266 7.0566 2.805 10.1366 4.897.7367.5058.9209 1.517.4144 2.2527-.504.7355-1.4928.9197-2.2295.4139-2.828-1.9083-5.954-3.4483-9.2642-4.4598-3.2182-.9887-6.6447-1.5402-10.1827-1.5402-9.5187 0-18.1384 3.862-24.3687 10.1148-6.2545 6.2301-10.09303 14.8509-10.09303 24.3682s3.83853 18.1379 10.09303 24.3682c6.2303 6.2298 14.85 10.0918 24.3687 10.0918 9.5163 0 18.1359-3.862 24.3662-10.0918 6.2303-6.2303 10.0931-14.8509 10.0931-24.3682 0-3.5632-.5283-6.9885-1.517-10.1841-1.0347-3.3333-2.5517-6.4371-4.4831-9.2643z"/><path d="m63.0815 41.7956c-.4362-.7815-.1381-1.77.6664-2.1836.7827-.437 1.7472-.1379 2.1858.6434.9645 1.7934 1.723 3.7241 2.2294 5.7473.5041 1.9769.7585 4.0229.7585 6.138 0 6.8967-2.7819 13.1267-7.3111 17.6554-4.5291 4.5289-10.757 7.3103-17.6537 7.3103s-13.1512-2.7814-17.6804-7.3103c-4.5049-4.5287-7.3086-10.7587-7.3086-17.6554 0-6.8968 2.8037-13.1493 7.3086-17.6782 4.5292-4.5062 10.7837-7.3106 17.6804-7.3106 2.1131 0 4.1608.276 6.114.7587 2.0235.5057 3.9524 1.2645 5.7481 2.2527.7803.4139 1.0808 1.4023.6664 2.1841-.4362.7818-1.4031 1.0806-2.2077.6667-1.5412-.8506-3.2181-1.5173-4.9896-1.9542-1.7011-.4367-3.4944-.6664-5.3312-.6664-6.0001 0-11.4501 2.4366-15.3807 6.3675-3.9306 3.9315-6.3684 9.3796-6.3684 15.3797 0 6 2.4378 11.4256 6.3684 15.3566 3.9306 3.9309 9.3806 6.368 15.3807 6.368s11.4234-2.4371 15.3565-6.368c3.9305-3.931 6.366-9.3566 6.366-15.3566 0-1.8621-.2278-3.6551-.6422-5.3563-.4604-1.7472-1.105-3.4253-1.9556-4.9888z"/><path d="m52.8987 51.1752c-.0703-.8736.5743-1.6782 1.4467-1.77.8991-.0921 1.7036.5515 1.7715 1.4479.0218.2072.046.4139.0678.6439 0 .2527.0242.4829.0242.6436 0 3.3795-1.3788 6.4368-3.6107 8.6437-2.2052 2.2301-5.2634 3.5865-8.6415 3.5865-3.3805 0-6.4386-1.3564-8.6681-3.5865-2.2076-2.2069-3.5865-5.2642-3.5865-8.6437s1.3789-6.46 3.5865-8.6667c2.2295-2.2069 5.2876-3.5862 8.6681-3.5862.16 0 .366 0 .6422.023.2084 0 .4144.023.6446.0461.8724.0918 1.517.8963 1.4249 1.7699-.092.8967-.8748 1.5405-1.769 1.4482-.1623-.023-.3004-.023-.4604-.0458h-.4823c-2.4839 0-4.7375 1.0117-6.3684 2.6436-1.6333 1.6323-2.6438 3.885-2.6438 6.3679s1.0105 4.7356 2.6438 6.368c1.6309 1.6093 3.8845 2.6205 6.3684 2.6205 2.4815 0 4.7351-1.0112 6.366-2.6205 1.6333-1.6324 2.6221-3.8851 2.6221-6.368v-.4827c0-.1609-.0243-.3221-.0461-.4827z"/><path d="m45.8396 52.5316c-.6203.6206-1.655.6206-2.2754 0-.6446-.6436-.6446-1.6554 0-2.2987l27.817-27.8166c.6204-.6436 1.6551-.6436 2.2997 0 .6204.6206.6204 1.6554 0 2.2988z"/><path d="m85.1286 1.51923.5743 8.85087 8.7603.5745c.4119 0 .8263.161 1.1486.4828.6204.6441.6204 1.6553 0 2.2992l-11.6778 11.6553c-.3005.3216-.761.5055-1.2432.4597l-10.253-.6669c-.8045-.046-1.4709-.6894-1.517-1.517l-.6906-10.1613c-.0436-.4825.1163-.9882.4847-1.3561l11.6536-11.655331c.2786-.276013.6228-.4366789 1.0371-.48272154.8967-.04604266 1.6552.62060554 1.723 1.51698254zm-2.5517 10.48317-.4362-6.71276-8.6221 8.62066.5283 8.1151 8.1156.5516 8.6221-8.6207-6.6907-.4369c-.8288-.0688-1.471-.7127-1.517-1.517z"/><path d="m86.2773 99.084c.8966 0 1.6333.7122 1.6333 1.609 0 .896-.7367 1.632-1.6333 1.632h-84.64339c-.89662 0-1.63329965-.736-1.63329965-1.632 0-.8968.73667965-1.609 1.63329965-1.609z"/></g></svg>